# xmcd
# Copyright (C) 1995-1998 Ti Kan
#
# Track frame offsets:
#       150
#       15995
#       33310
#       49725
#       70275
#       80225
#       101412
#
# Disc length: 2267 seconds
#
# Revision: 2
# Processed by: cddbd v1.4b42PL1 Copyright (c) Steve Scherf et al.
# Submitted via: CD-Transfer v1.0
#
DISCID=5108d907
DTITLE=Living G - Silence Of The Night
DYEAR=1998
DGENRE=
TTITLE0=Gospel In My Soul
TTITLE1=I Can Never Go Back
TTITLE2=I'll Be With You
TTITLE3=Love Is True
TTITLE4=Rapture
TTITLE5=Silence Of The Night
TTITLE6=Gospel In My Soul (Maxi)
EXTD=
EXTT0=
EXTT1=
EXTT2=
EXTT3=
EXTT4=
EXTT5=
EXTT6=
PLAYORDER=
